<?xml version="1.0" standalone="no"?>
<!DOCTYPE svg PUBLIC "-//W3C//DTD SVG 20010904//EN"
 "http://www.w3.org/TR/2001/REC-SVG-20010904/DTD/svg10.dtd">
<svg version="1.0" xmlns="http://www.w3.org/2000/svg"
 width="1244.000000pt" height="1280.000000pt" viewBox="0 0 1244.000000 1280.000000"
 preserveAspectRatio="xMidYMid meet">
<metadata>
Created by potrace 1.15, written by Peter Selinger 2001-2017
</metadata>
<g transform="translate(0.000000,1280.000000) scale(0.100000,-0.100000)"
fill="#000000" stroke="none">
<path d="M7103 10775 c-20 -21 -23 -35 -23 -100 0 -43 4 -75 10 -75 6 0 10
-22 10 -50 0 -27 5 -50 10 -50 6 0 10 -18 10 -40 0 -22 5 -40 10 -40 6 0 10
-20 10 -45 0 -25 5 -45 10 -45 6 0 10 -27 10 -60 0 -33 -4 -60 -10 -60 -5 0
-10 7 -10 16 0 9 -13 29 -30 44 -16 15 -30 34 -30 42 0 7 -9 20 -20 28 -11 8
-20 18 -20 23 0 5 -13 22 -30 37 -16 15 -30 33 -30 39 0 6 -29 41 -65 76 -62
62 -67 65 -113 65 -54 0 -92 -28 -92 -68 0 -11 -4 -24 -10 -27 -5 -3 -10 -17
-10 -30 0 -13 -4 -27 -10 -30 -5 -3 -10 -35 -10 -71 0 -36 -4 -64 -10 -64 -6
0 -10 -26 -10 -59 0 -33 5 -63 10 -66 6 -3 10 -40 10 -81 0 -43 4 -74 10 -74
6 0 10 -18 10 -40 0 -22 5 -40 10 -40 6 0 10 -18 10 -40 0 -22 5 -40 10 -40 6
0 10 -13 10 -30 0 -16 5 -30 10 -30 6 0 10 -13 10 -30 0 -16 5 -30 10 -30 6 0
10 -13 10 -30 0 -16 5 -30 10 -30 6 0 10 -9 10 -20 0 -11 4 -20 10 -20 5 0 12
-22 16 -50 4 -27 10 -50 15 -50 5 0 9 -9 9 -20 0 -11 5 -20 10 -20 6 0 10 -9
10 -20 0 -11 5 -20 10 -20 6 0 10 -7 10 -15 0 -8 5 -15 10 -15 6 0 10 -9 10
-20 0 -11 5 -20 10 -20 6 0 10 -9 10 -20 0 -11 5 -20 10 -20 6 0 10 -9 10 -20
0 -11 5 -20 10 -20 6 0 10 -9 10 -20 0 -11 5 -20 10 -20 6 0 10 -8 10 -18 0
-10 9 -24 20 -32 11 -8 20 -22 20 -32 0 -10 5 -18 10 -18 6 0 10 -9 10 -20 0
-11 5 -20 10 -20 6 0 10 -9 10 -20 0 -11 5 -20 10 -20 6 0 10 -9 10 -20 0 -11
5 -20 10 -20 6 0 10 -13 10 -30 0 -16 5 -30 10 -30 6 0 10 -18 10 -40 0 -22
-4 -40 -10 -40 -6 0 -10 -33 -10 -80 0 -47 -4 -80 -10 -80 -5 0 -10 -22 -10
-50 0 -27 -4 -50 -10 -50 -5 0 -10 -18 -10 -40 0 -22 -4 -40 -10 -40 -5 0 -10
-16 -10 -35 0 -19 -4 -35 -10 -35 -5 0 -10 -13 -10 -30 0 -16 -4 -30 -10 -30
-5 0 -10 -9 -10 -20 0 -11 -4 -20 -10 -20 -5 0 -10 -13 -10 -28 0 -16 -8 -34
-20 -42 -11 -8 -20 -21 -20 -30 0 -9 -9 -22 -20 -30 -11 -8 -20 -20 -20 -28 0
-17 -25 -42 -42 -42 -8 0 -20 -9 -28 -20 -8 -11 -20 -20 -27 -20 -7 0 -13 -4
-13 -10 0 -6 -27 -10 -60 -10 -33 0 -60 -4 -60 -10 0 -5 -22 -10 -50 -10 -27
0 -50 -4 -50 -10 0 -6 -27 -10 -60 -10 -33 0 -60 -4 -60 -10 0 -5 -22 -10 -50
-10 -27 0 -50 -4 -50 -10 0 -5 -22 -10 -50 -10 -27 0 -50 -4 -50 -10 0 -5 -22
-10 -50 -10 -27 0 -50 -4 -50 -10 0 -5 -18 -10 -40 -10 -22 0 -40 -4 -40 -10
0 -5 -18 -10 -40 -10 -22 0 -40 -4 -40 -10 0 -5 -18 -10 -40 -10 -22 0 -40 -4
-40 -10 0 -5 -16 -10 -35 -10 -19 0 -35 -4 -35 -10 0 -5 -13 -10 -30 -10 -16
0 -30 -4 -30 -10 0 -5 -13 -10 -30 -10 -16 0 -30 -4 -30 -10 0 -5 -13 -10 -30
-10 -16 0 -30 -4 -30 -10 0 -5 -13 -10 -30 -10 -16 0 -30 -4 -30 -10 0 -5 -18
-10 -40 -10 -22 0 -40 -4 -40 -10 0 -5 -13 -10 -30 -10 -16 0 -30 -4 -30 -10
0 -5 -9 -10 -20 -10 -11 0 -20 -4 -20 -10 0 -5 -13 -10 -30 -10 -16 0 -30 -4
-30 -10 0 -5 -9 -10 -20 -10 -11 0 -20 -4 -20 -10 0 -5 -13 -10 -30 -10 -16 0
-30 -4 -30 -10 0 -5 -9 -10 -20 -10 -11 0 -20 -4 -20 -10 0 -5 -13 -10 -30
-10 -16 0 -30 -4 -30 -10 0 -5 -9 -10 -20 -10 -11 0 -20 -4 -20 -10 0 -5 -9
-10 -20 -10 -11 0 -20 -4 -20 -10 0 -5 -9 -10 -20 -10 -11 0 -20 -4 -20 -9 0
-6 -20 -13 -45 -17 -25 -3 -45 -10 -45 -15 0 -5 -9 -9 -20 -9 -11 0 -20 -4
-20 -10 0 -5 -9 -10 -20 -10 -11 0 -20 -4 -20 -10 0 -5 -8 -10 -18 -10 -10 0
-24 -9 -32 -20 -8 -11 -22 -20 -32 -20 -10 0 -18 -4 -18 -10 0 -5 -9 -10 -20
-10 -11 0 -20 -4 -20 -10 0 -5 -9 -10 -20 -10 -11 0 -20 -4 -20 -10 0 -5 -8
-10 -18 -10 -10 0 -24 -9 -32 -20 -8 -11 -22 -20 -32 -20 -10 0 -18 -4 -18
-10 0 -5 -8 -10 -18 -10 -10 0 -24 -9 -32 -20 -8 -11 -21 -20 -30 -20 -9 0
-22 -9 -30 -20 -8 -11 -21 -20 -28 -20 -8 0 -27 -13 -42 -30 -15 -16 -33 -30
-40 -30 -7 0 -25 -13 -40 -30 -15 -16 -33 -30 -39 -30 -7 0 -43 -31 -81 -70
-38 -38 -74 -70 -80 -70 -14 0 -80 -66 -80 -80 0 -13 -11 -26 -77 -95 -29 -30
-53 -60 -53 -66 0 -6 -13 -24 -30 -39 -16 -15 -30 -34 -30 -42 0 -7 -9 -20
-20 -28 -11 -8 -20 -19 -20 -25 0 -6 -9 -17 -20 -25 -11 -8 -20 -21 -20 -30 0
-9 -9 -22 -20 -30 -11 -8 -20 -22 -20 -32 0 -10 -4 -18 -10 -18 -5 0 -10 -8
-10 -18 0 -10 -9 -24 -20 -32 -11 -8 -20 -22 -20 -32 0 -10 -4 -18 -10 -18 -5
0 -10 -9 -10 -20 0 -11 -4 -20 -10 -20 -5 0 -10 -9 -10 -20 0 -11 -4 -20 -10
-20 -5 0 -10 -9 -10 -20 0 -11 -4 -20 -10 -20 -5 0 -10 -9 -10 -20 0 -11 -4
-20 -10 -20 -5 0 -10 -13 -10 -30 0 -16 -4 -30 -10 -30 -5 0 -10 -9 -10 -20 0
-11 -4 -20 -10 -20 -5 0 -10 -9 -10 -20 0 -11 -4 -20 -10 -20 -5 0 -10 -13
-10 -30 0 -16 -4 -30 -10 -30 -5 0 -10 -9 -10 -20 0 -11 -4 -20 -10 -20 -5 0
-10 -13 -10 -30 0 -16 -4 -30 -10 -30 -5 0 -10 -13 -10 -30 0 -16 -4 -30 -10
-30 -5 0 -10 -13 -10 -30 0 -16 -4 -30 -10 -30 -5 0 -10 -13 -10 -30 0 -16 -5
-30 -11 -30 -7 0 -9 -10 -7 -24 3 -16 0 -27 -10 -31 -10 -3 -13 -16 -10 -40 3
-23 -1 -36 -10 -40 -9 -3 -13 -14 -10 -30 3 -15 0 -26 -10 -30 -10 -3 -13 -16
-10 -40 3 -23 -1 -36 -10 -40 -10 -3 -13 -16 -10 -40 3 -25 0 -35 -10 -35 -10
0 -13 -9 -10 -30 3 -21 0 -30 -10 -30 -10 0 -13 -10 -10 -40 2 -29 0 -40 -10
-40 -10 0 -13 -11 -10 -40 2 -29 0 -40 -10 -40 -9 0 -13 -11 -10 -35 1 -22 -3
-39 -11 -44 -8 -5 -12 -26 -10 -60 2 -34 -2 -55 -10 -60 -8 -6 -12 -31 -10
-80 1 -48 -2 -75 -10 -80 -8 -5 -11 -40 -9 -117 l3 -109 -34 -32 c-19 -18 -32
-36 -28 -39 4 -4 -2 -13 -13 -21 -11 -8 -20 -23 -20 -34 0 -10 -4 -19 -10 -19
-5 0 -10 -9 -10 -20 0 -11 -4 -20 -10 -20 -5 0 -10 -9 -10 -20 0 -11 -4 -20
-10 -20 -5 0 -10 -13 -10 -30 0 -16 -4 -30 -10 -30 -6 0 -10 -37 -10 -90 0
-53 4 -90 10 -90 6 0 10 -18 10 -40 0 -22 5 -40 10 -40 6 0 10 -9 10 -20 0
-11 5 -20 10 -20 6 0 10 -7 10 -16 0 -9 13 -28 30 -44 16 -15 27 -30 24 -33
-8 -7 84 -97 99 -97 7 0 19 -9 27 -20 8 -11 21 -20 30 -20 9 0 22 -9 30 -20 8
-11 22 -20 32 -20 10 0 18 -4 18 -10 0 -5 9 -10 20 -10 11 0 20 -4 20 -10 0
-5 7 -10 16 -10 18 0 44 -24 44 -40 0 -7 14 -25 30 -40 17 -15 30 -33 30 -39
0 -16 107 -121 123 -121 7 0 19 -9 27 -20 8 -11 22 -20 32 -20 10 0 18 -4 18
-10 0 -5 9 -10 20 -10 11 0 20 -4 20 -10 0 -5 14 -10 30 -10 17 0 30 -4 30
-10 0 -5 14 -10 30 -10 17 0 30 -4 30 -10 0 -5 18 -10 40 -10 22 0 40 -4 40
-10 0 -5 25 -10 55 -10 30 0 55 -4 55 -10 0 -6 40 -10 99 -10 56 0 103 -4 106
-10 4 -6 92 -10 231 -10 143 0 224 -4 224 -10 0 -6 68 -10 184 -10 113 0 187
-4 191 -10 3 -5 17 -10 30 -10 13 0 27 -5 30 -10 3 -6 15 -10 25 -10 11 0 35
-9 55 -20 20 -11 44 -20 55 -20 11 0 20 -4 20 -10 0 -5 14 -10 30 -10 17 0 30
-4 30 -10 0 -5 14 -10 30 -10 17 0 30 -4 30 -10 0 -5 14 -10 30 -10 17 0 30
-4 30 -10 0 -5 18 -10 40 -10 22 0 40 -4 40 -10 0 -5 14 -10 30 -10 17 0 30
-4 30 -10 0 -6 37 -10 90 -10 53 0 90 -4 90 -10 0 -6 52 -10 135 -10 83 0 135
4 135 10 0 6 33 10 80 10 47 0 80 4 80 10 0 6 11 10 25 10 16 0 39 13 60 35
34 34 35 36 35 120 0 50 -4 85 -10 85 -5 0 -10 14 -10 30 0 17 -4 30 -10 30
-5 0 -10 14 -10 30 0 17 -4 30 -10 30 -5 0 -10 8 -10 18 0 10 -9 24 -20 32
-11 8 -20 21 -20 28 0 8 -13 27 -30 42 -16 15 -30 33 -30 39 0 15 -66 81 -81
81 -6 0 -24 14 -39 30 -15 17 -33 30 -40 30 -6 0 -18 6 -25 14 -12 12 -12 16
3 28 9 8 34 22 54 32 20 9 40 21 43 26 8 12 89 50 107 50 8 0 20 9 28 20 8 11
22 20 32 20 10 0 18 5 18 10 0 6 8 10 18 10 10 0 24 9 32 20 8 11 22 20 32 20
10 0 18 5 18 10 0 6 9 10 20 10 11 0 20 5 20 10 0 6 8 10 18 10 10 0 24 9 32
20 8 11 20 20 26 20 6 0 17 7 24 15 7 9 32 24 54 35 23 10 57 35 75 54 19 20
41 36 49 36 13 0 74 58 102 99 8 11 20 21 28 21 7 0 48 36 92 80 44 44 85 80
92 80 8 0 20 9 28 20 8 11 22 20 32 20 10 0 18 5 18 10 0 6 14 10 30 10 17 0
30 -4 30 -10 0 -5 9 -10 20 -10 13 0 20 -7 20 -18 0 -10 9 -24 20 -32 12 -8
20 -26 20 -42 0 -15 5 -28 10 -28 6 0 10 -13 10 -30 0 -16 5 -30 10 -30 6 0
10 -13 10 -30 0 -16 5 -30 10 -30 6 0 10 -22 10 -50 0 -27 5 -50 10 -50 6 0
10 -22 10 -50 0 -27 5 -50 10 -50 6 0 10 -22 10 -50 0 -27 5 -50 10 -50 6 0
10 -18 10 -40 0 -22 5 -40 10 -40 6 0 10 -16 10 -35 0 -19 5 -35 10 -35 6 0
10 -13 10 -30 0 -16 5 -30 10 -30 6 0 10 -6 10 -13 0 -23 28 -71 55 -97 14
-13 25 -29 25 -35 0 -7 9 -20 20 -30 11 -10 20 -24 20 -32 0 -7 5 -13 10 -13
6 0 10 -8 10 -18 0 -10 9 -24 20 -32 11 -8 20 -22 20 -32 0 -10 5 -18 10 -18
6 0 10 -9 10 -20 0 -11 5 -20 10 -20 6 0 10 -9 10 -20 0 -11 5 -20 10 -20 6 0
10 -8 10 -18 0 -10 9 -24 20 -32 11 -8 20 -22 20 -32 0 -10 5 -18 10 -18 6 0
10 -9 10 -20 0 -11 5 -20 10 -20 6 0 10 -9 10 -19 0 -11 7 -26 15 -35 8 -8 15
-21 15 -28 0 -8 9 -20 20 -28 11 -8 20 -20 20 -27 0 -8 24 -38 54 -68 38 -37
65 -56 90 -61 20 -3 36 -10 36 -15 0 -5 86 -9 190 -9 105 0 190 4 190 9 0 4
37 11 82 15 46 4 87 11 92 16 6 6 18 10 27 10 46 0 169 91 169 125 0 8 5 15
10 15 6 0 10 29 10 68 0 56 -3 70 -20 82 -11 8 -20 20 -20 28 0 13 -13 30 -97
117 -29 30 -53 61 -53 70 0 8 -4 15 -10 15 -5 0 -10 9 -10 20 0 11 -4 20 -10
20 -5 0 -10 7 -10 15 0 9 -6 18 -14 21 -8 3 -11 15 -8 29 3 16 -1 27 -10 30
-10 4 -13 15 -10 30 3 16 -1 27 -10 30 -9 4 -13 17 -10 40 3 23 0 37 -10 40
-9 4 -12 18 -10 46 3 27 0 44 -9 50 -9 5 -12 23 -10 50 1 24 -2 45 -9 49 -15
9 -14 413 0 418 6 2 10 21 10 43 0 22 5 39 11 39 6 0 9 7 5 15 -3 8 2 19 11
23 10 6 14 17 10 31 -3 13 1 24 10 30 10 5 14 16 10 30 -3 13 1 24 10 30 10 5
14 16 10 30 -3 13 1 24 10 30 10 5 14 16 10 30 -3 13 1 24 10 30 11 6 14 18
11 39 -3 21 0 33 10 37 10 3 13 16 10 40 -3 23 1 36 10 40 10 3 13 16 10 40
-3 23 1 36 10 40 10 3 13 16 10 40 -2 22 1 36 9 39 7 3 13 21 13 41 0 19 5 35
10 35 6 0 10 18 10 40 0 22 5 40 11 40 7 0 10 18 7 50 -1 28 0 50 5 50 4 0 7
23 7 50 0 28 5 50 10 50 6 0 10 18 10 40 0 22 5 40 10 40 6 0 10 27 10 60 0
33 4 60 10 60 6 0 10 20 10 45 0 25 5 45 10 45 6 0 10 27 10 60 0 33 4 60 10
60 6 0 10 30 10 70 0 40 4 70 10 70 6 0 10 43 10 110 0 67 4 110 10 110 6 0
10 60 10 160 0 100 4 160 10 160 6 0 10 38 10 95 0 57 4 95 10 95 6 0 10 27
10 60 0 33 4 60 10 60 6 0 10 23 10 50 0 28 5 50 10 50 6 0 10 18 10 40 0 22
5 40 10 40 6 0 10 18 10 40 0 22 5 40 10 40 6 0 10 14 10 30 0 17 5 30 10 30
6 0 10 14 10 30 0 17 5 30 10 30 6 0 10 14 10 30 0 17 5 30 10 30 6 0 10 14
10 30 0 17 5 30 10 30 6 0 10 9 10 20 0 11 5 20 10 20 6 0 10 14 10 30 0 23 4
30 20 30 11 0 20 5 20 10 0 6 9 10 20 10 11 0 20 5 20 10 0 6 9 10 20 10 11 0
20 5 20 10 0 6 7 10 16 10 9 0 29 14 44 30 15 17 33 30 40 30 15 0 96 82 92
94 -1 4 8 17 20 28 13 11 22 25 20 30 -1 6 8 19 20 30 13 11 22 26 20 33 -1 7
4 15 13 18 8 4 12 13 9 20 -3 8 2 17 11 21 9 3 14 10 11 15 -3 5 1 14 9 21 7
6 11 18 8 26 -3 8 1 22 8 31 8 8 12 27 11 40 -2 13 2 30 8 38 16 19 16 275 -1
285 -6 5 -9 17 -6 29 3 13 -1 24 -10 30 -10 5 -14 16 -10 30 3 15 0 24 -9 28
-8 3 -13 12 -10 20 3 7 -1 16 -10 20 -8 3 -13 11 -10 18 3 8 -2 16 -11 19 -8
4 -13 13 -10 20 3 8 -1 17 -10 20 -8 4 -13 13 -10 20 3 8 -1 17 -9 20 -9 3
-14 12 -12 18 3 7 -6 21 -18 31 -13 10 -21 24 -18 31 3 7 -2 16 -11 20 -9 3
-13 11 -10 16 4 6 -5 20 -19 31 -15 11 -23 25 -20 30 3 6 -4 18 -15 28 -12 10
-21 25 -21 32 0 8 -9 21 -20 29 -11 8 -20 21 -20 30 0 9 -9 22 -20 30 -11 8
-20 21 -20 28 0 8 -13 27 -30 42 -16 15 -30 33 -30 39 0 16 -167 181 -183 181
-7 0 -19 9 -27 20 -8 11 -21 20 -30 20 -9 0 -22 9 -30 20 -8 11 -22 20 -32 20
-10 0 -18 5 -18 10 0 6 -9 10 -20 10 -11 0 -20 5 -20 10 0 6 -13 10 -30 10
-16 0 -30 5 -30 10 0 6 -11 10 -24 10 -14 0 -28 5 -31 10 -3 6 -17 10 -30 10
-13 0 -27 5 -30 10 -3 6 -21 10 -39 10 -17 0 -36 4 -42 10 -5 5 -46 12 -92 16
-45 4 -82 11 -82 15 0 5 -22 9 -50 9 -27 0 -50 5 -50 10 0 6 -22 10 -50 10
-27 0 -50 5 -50 10 0 6 -22 10 -50 10 -49 0 -50 1 -50 30 0 17 -4 30 -10 30
-5 0 -10 14 -10 30 0 17 -4 30 -10 30 -5 0 -10 9 -10 20 0 11 -4 20 -10 20 -5
0 -10 9 -10 20 0 11 -4 20 -10 20 -5 0 -10 14 -10 30 0 17 -4 30 -10 30 -5 0
-10 9 -10 20 0 11 -4 20 -10 20 -5 0 -10 9 -10 20 0 11 -4 20 -10 20 -5 0 -10
9 -10 20 0 11 -4 20 -10 20 -5 0 -10 9 -10 20 0 11 -4 20 -10 20 -5 0 -10 9
-10 20 0 11 -4 20 -10 20 -5 0 -10 9 -10 20 0 11 -4 20 -10 20 -5 0 -10 9 -10
20 0 11 -4 20 -10 20 -5 0 -10 9 -10 20 0 11 -4 20 -10 20 -5 0 -10 9 -10 20
0 11 -4 20 -9 20 -5 0 -12 15 -15 34 -4 19 -13 40 -22 47 -8 7 -24 31 -34 54
-10 23 -26 48 -35 55 -8 7 -15 18 -15 24 0 6 -9 18 -20 26 -11 8 -20 22 -20
32 0 10 -4 18 -10 18 -5 0 -10 7 -10 16 0 9 -13 29 -30 44 -16 15 -30 33 -30
40 0 7 -13 25 -30 40 -16 15 -30 33 -30 39 0 17 -168 181 -185 181 -8 0 -15 5
-15 10 0 6 -32 10 -77 9 -69 0 -81 -3 -100 -24z"/>
</g>
</svg>
